<?xml version="1.0" encoding="UTF-8" standalone="no"?>
<!-- Created with Inkscape (http://www.inkscape.org/) -->

<svg
   xmlns:dc="http://purl.org/dc/elements/1.1/"
   xmlns:cc="http://creativecommons.org/ns#"
   xmlns:rdf="http://www.w3.org/1999/02/22-rdf-syntax-ns#"
   xmlns:svg="http://www.w3.org/2000/svg"
   xmlns="http://www.w3.org/2000/svg"
   xmlns:xlink="http://www.w3.org/1999/xlink"
   xmlns:sodipodi="http://sodipodi.sourceforge.net/DTD/sodipodi-0.dtd"
   xmlns:inkscape="http://www.inkscape.org/namespaces/inkscape"
   width="141.55209mm"
   height="48.994785mm"
   viewBox="0 0 141.55209 48.994787"
   version="1.1"
   id="svg6038"
   inkscape:version="0.92.4 (5da689c313, 2019-01-14)"
   sodipodi:docname="ofbiz.svg">
  <defs
     id="defs6032">
    <linearGradient
       inkscape:collect="always"
       id="linearGradient6666">
      <stop
         style="stop-color:#241c53;stop-opacity:1"
         offset="0"
         id="stop6662" />
      <stop
         id="stop6670"
         offset="0.54144609"
         style="stop-color:#be202e;stop-opacity:1" />
      <stop
         style="stop-color:#e98c29;stop-opacity:1"
         offset="1"
         id="stop6664" />
    </linearGradient>
    <linearGradient
       inkscape:collect="always"
       xlink:href="#linearGradient6666"
       id="linearGradient6668"
       x1="-34.101654"
       y1="163.88135"
       x2="95.240761"
       y2="57.240807"
       gradientUnits="userSpaceOnUse"
       gradientTransform="matrix(0.45529277,0,0,0.45529277,-26.596665,80.987874)" />
  </defs>
  <sodipodi:namedview
     id="base"
     pagecolor="#ffffff"
     bordercolor="#666666"
     borderopacity="1.0"
     inkscape:pageopacity="0.0"
     inkscape:pageshadow="2"
     inkscape:zoom="0.7"
     inkscape:cx="641.56011"
     inkscape:cy="146.86454"
     inkscape:document-units="mm"
     inkscape:current-layer="g6622"
     showgrid="false"
     fit-margin-top="0"
     fit-margin-left="0"
     fit-margin-right="0"
     fit-margin-bottom="0"
     inkscape:window-width="1600"
     inkscape:window-height="877"
     inkscape:window-x="-8"
     inkscape:window-y="-8"
     inkscape:window-maximized="1" />
  <metadata
     id="metadata6035">
    <rdf:RDF>
      <cc:Work
         rdf:about="">
        <dc:format>image/svg+xml</dc:format>
        <dc:type
           rdf:resource="http://purl.org/dc/dcmitype/StillImage" />
        <dc:title></dc:title>
      </cc:Work>
    </rdf:RDF>
  </metadata>
  <g
     inkscape:label="Layer 1"
     inkscape:groupmode="layer"
     id="layer1"
     transform="translate(44.391536,-145.57355)">
    <g
       id="g6622"
       transform="translate(3.2072343,36.615925)">
      <path
         style="fill:url(#linearGradient6668);fill-opacity:1;stroke-width:0.12046287"
         d="m -33.090029,157.89277 c -1.153571,-0.0871 -3.243467,-0.42592 -4.353835,-0.7059 -4.644282,-1.17106 -7.758147,-3.28823 -9.204296,-6.25817 -0.769373,-1.58004 -0.941522,-2.35477 -0.950255,-4.27642 -0.0089,-1.94909 0.145922,-2.81487 0.861429,-4.81852 1.81461,-5.08147 6.118595,-10.42297 12.572357,-15.60304 2.883115,-2.31411 5.595357,-4.16925 9.205845,-6.29667 1.807528,-1.06507 6.769676,-3.57203 8.634309,-4.3622 1.709352,-0.72438 1.78573,-0.80461 1.78573,-1.87571 0,-1.17159 0.452178,-1.86878 1.867175,-2.87889 1.548524,-1.10544 3.4537047,-1.74869 5.179904,-1.7489 1.5785706,-1.9e-4 2.0830414,0.42317 2.1013014,1.76345 0.00392,0.2862 0.071914,0.52407 0.1594544,0.55766 0.083962,0.0322 0.8835339,-0.12269 1.7768274,-0.34423 4.19135283,-1.03949 8.0631612,-1.70515 11.489506,-1.97534 3.0778848,-0.24271 7.7405078,-0.0775 10.0712748,0.35693 1.846558,0.34414 4.681871,1.32365 6.023146,2.08079 1.962912,1.10805 3.802008,2.97824 4.515716,4.59207 0.675327,1.52703 0.837425,2.32379 0.836369,4.111 -9.11e-4,1.44725 -0.04967,1.88298 -0.344133,3.0718 -0.501027,2.02276 -1.72688,5.04367 -2.162309,5.32864 -0.07438,0.0487 -1.693721,0.0893 -3.598538,0.0903 -3.027711,0.002 -3.463308,-0.0213 -3.463308,-0.18228 0,-0.10127 0.163455,-0.50793 0.363228,-0.90369 0.534496,-1.05882 0.81665,-1.82248 1.17477,-3.17956 0.274578,-1.04049 0.320899,-1.46294 0.324601,-2.96039 0.0036,-1.49723 -0.0357,-1.87576 -0.275981,-2.65019 -0.478435,-1.54207 -1.445773,-3.0482 -2.572086,-4.00468 -3.722628,-3.16133 -9.5235037,-4.22244 -17.5658174,-3.21318 -2.509378,0.31491 -6.422775,1.18346 -6.7356035,1.49492 -0.12874,0.12817 -0.192918,0.75964 -0.2626106,2.5839 -0.050727,1.32786 -0.1305561,2.5367 -0.1773985,2.68632 -0.7053245,2.25289 -6.12403,4.59134 -8.324264,3.59235 -0.774112,-0.35147 -0.797727,-0.45334 -0.69934,-3.01689 0.06095,-1.58816 0.04767,-2.28273 -0.04475,-2.33985 -0.07229,-0.0447 -1.095142,0.41698 -2.273016,1.02589 -5.858416,3.02856 -10.452221,6.29357 -14.376989,10.21834 -3.412483,3.41248 -5.439941,6.26305 -6.788623,9.54468 -0.733977,1.78592 -0.957778,2.92797 -0.963849,4.91846 -0.0048,1.57025 0.02739,1.85016 0.318541,2.77065 1.279472,4.04514 5.085556,6.50176 11.299143,7.29297 1.295066,0.16491 2.183884,0.19337 4.394096,0.1407 5.699565,-0.13582 11.698264,-1.49498 17.9489695,-4.06679 0.9938185,-0.4089 1.9289115,-0.77086 2.0779844,-0.80435 l 0.2710417,-0.0609 v 2.12366 2.12366 l -0.6926615,0.31088 c -0.3809639,0.17098 -1.5870987,0.65172 -2.6802994,1.0683 -6.5149117,2.4826 -13.4626507,4.14944 -19.3342927,4.6385 -1.327612,0.11058 -6.129446,0.13643 -7.408467,0.0399 z m 14.395315,-19.11863 c -1.426254,-0.45106 -2.032051,-1.15908 -2.018411,-2.35899 0.01588,-1.39702 0.961956,-2.98456 2.856644,-4.79353 2.517954,-2.40403 6.125995,-4.43006 9.5215746,-5.34667 1.8560078,-0.50101 4.1292158,-0.60688 5.1623839,-0.24043 1.4080676,0.49943 1.9930127,1.31479 1.8442626,2.57075 -0.4411618,3.72492 -7.0398447,8.74038 -13.2774841,10.09182 -1.298858,0.2814 -3.322252,0.31954 -4.08897,0.077 z"
         id="path6624"
         inkscape:connector-curvature="0"
         sodipodi:nodetypes="ccscssssscsccsssccccccscccccscsccscssscsssccccccsscccssscssc" />
      <g
         aria-label="APACHE"
         style="font-style:normal;font-variant:normal;font-weight:normal;font-stretch:normal;font-size:30.16489983px;line-height:125%;font-family:Montserrat;-inkscape-font-specification:Montserrat;letter-spacing:0px;word-spacing:0px;fill:#281b4f;fill-opacity:1;stroke:none;stroke-width:1.09690535px;stroke-linecap:butt;stroke-linejoin:miter;stroke-opacity:1"
         id="text6630"
         transform="matrix(0.45529277,0,0,0.45529277,-25.927393,86.037838)">
        <path
           d="m 141.06632,96.72261 -2.38303,-5.399517 h -11.49283 l -2.35286,5.399517 h -2.56402 l 9.47178,-21.115429 h 2.50369 l 9.44161,21.115429 z M 128.1859,89.090891 h 9.53211 l -4.79622,-10.859364 z"
           style="font-style:normal;font-variant:normal;font-weight:300;font-stretch:normal;font-family:Montserrat;-inkscape-font-specification:'Montserrat Light';letter-spacing:0.96043748px;fill:#281b4f;fill-opacity:1;stroke-width:1.09690535px"
           id="path6720"
           inkscape:connector-curvature="0" />
        <path
           d="m 155.92523,75.607181 q 3.92144,0 6.06315,1.870223 2.17187,1.840059 2.17187,5.218528 0,3.468964 -2.17187,5.399517 -2.14171,1.930554 -6.06315,1.930554 h -5.52017 v 6.696607 h -2.4132 V 75.607181 Z m -0.0905,12.186619 q 2.86566,0 4.43424,-1.266926 1.56857,-1.29709 1.56857,-3.770612 0,-2.413192 -1.56857,-3.649953 -1.56858,-1.266926 -4.43424,-1.266926 h -5.42968 V 87.7938 Z"
           style="font-style:normal;font-variant:normal;font-weight:300;font-stretch:normal;font-family:Montserrat;-inkscape-font-specification:'Montserrat Light';letter-spacing:0.96043748px;fill:#281b4f;fill-opacity:1;stroke-width:1.09690535px"
           id="path6722"
           inkscape:connector-curvature="0" />
        <path
           d="m 183.69802,96.72261 -2.38303,-5.399517 h -11.49282 l -2.35286,5.399517 h -2.56402 l 9.47178,-21.115429 h 2.50368 l 9.44162,21.115429 z m -12.88041,-7.631719 h 9.53211 L 175.5535,78.231527 Z"
           style="font-style:normal;font-variant:normal;font-weight:300;font-stretch:normal;font-family:Montserrat;-inkscape-font-specification:'Montserrat Light';letter-spacing:0.96043748px;fill:#281b4f;fill-opacity:1;stroke-width:1.09690535px"
           id="path6724"
           inkscape:connector-curvature="0" />
        <path
           d="m 205.38693,80.28274 q -1.23676,-1.236761 -2.89583,-1.930554 -1.6289,-0.723957 -3.3483,-0.723957 -2.35286,0 -4.34375,1.146266 -1.96071,1.116101 -3.10698,3.07682 -1.14627,1.960718 -1.14627,4.283416 0,2.292532 1.14627,4.253251 1.14627,1.960718 3.10698,3.106984 1.99089,1.146266 4.34375,1.146266 1.7194,0 3.3483,-0.663627 1.62891,-0.693793 2.89583,-1.900389 l 1.47808,1.59874 q -1.59873,1.508245 -3.64995,2.383027 -2.02105,0.844617 -4.19292,0.844617 -2.98632,0 -5.49001,-1.41775 -2.50369,-1.447916 -3.98177,-3.921437 -1.44791,-2.473522 -1.44791,-5.429682 0,-2.925996 1.47808,-5.369353 1.47808,-2.473521 3.98176,-3.891272 2.53386,-1.447915 5.55035,-1.447915 2.1417,0 4.16275,0.814452 2.02105,0.814453 3.55946,2.292533 z"
           style="font-style:normal;font-variant:normal;font-weight:300;font-stretch:normal;font-family:Montserrat;-inkscape-font-specification:'Montserrat Light';letter-spacing:0.96043748px;fill:#281b4f;fill-opacity:1;stroke-width:1.09690535px"
           id="path6726"
           inkscape:connector-curvature="0" />
        <path
           d="m 212.14563,75.607181 h 2.41319 v 9.562273 h 12.72959 v -9.562273 h 2.41319 V 96.72261 h -2.41319 v -9.351118 h -12.72959 v 9.351118 h -2.41319 z"
           style="font-style:normal;font-variant:normal;font-weight:300;font-stretch:normal;font-family:Montserrat;-inkscape-font-specification:'Montserrat Light';letter-spacing:0.96043748px;fill:#281b4f;fill-opacity:1;stroke-width:1.09690535px"
           id="path6728"
           inkscape:connector-curvature="0" />
        <path
           d="m 237.08481,75.607181 h 14.32833 v 2.232202 H 239.498 v 7.088752 h 10.64821 v 2.202037 H 239.498 v 7.360236 h 12.30728 v 2.232202 h -14.72047 z"
           style="font-style:normal;font-variant:normal;font-weight:300;font-stretch:normal;font-family:Montserrat;-inkscape-font-specification:'Montserrat Light';letter-spacing:0.96043748px;fill:#281b4f;fill-opacity:1;stroke-width:1.09690535px"
           id="path6730"
           inkscape:connector-curvature="0" />
      </g>
      <path
         style="fill:#cd452d;fill-opacity:1;stroke-width:0.12046287"
         d="m 7.0718498,157.20138 c -1.9708394,-0.28614 -4.0299693,-1.28763 -5.2854345,-2.57066 -0.91175567,-0.93178 -1.4378146,-1.7983 -1.92220968,-3.16624 -0.35710433,-1.00847 -0.37572125,-1.15496 -0.41870544,-3.29445 -0.0503463,-2.50628 0.0783012,-3.50429 0.72070569,-5.59104 1.67476253,-5.44018 5.47782763,-9.08135 10.49552713,-10.04873 1.808332,-0.34864 4.557508,-0.35008 6.199826,-0.003 3.212846,0.67848 5.532299,2.69086 6.448603,5.59486 1.053789,3.33973 0.242243,8.81571 -1.854663,12.51454 -2.049709,3.61558 -5.179319,5.80582 -9.309871,6.51548 -1.160696,0.19941 -3.8597901,0.22574 -5.0737782,0.0495 z m 4.7582832,-4.44907 c 3.634907,-1.07366 6.143607,-5.54371 6.143607,-10.9468 0,-2.65754 -0.673938,-4.02947 -2.40926,-4.9045 -0.551823,-0.27826 -0.85513,-0.34224 -1.814979,-0.38287 -1.966919,-0.0832 -3.18348,0.33013 -4.7112144,1.60082 -2.0781292,1.72848 -3.4314414,4.63458 -3.8423705,8.25108 -0.3272735,2.88034 0.2150348,4.7746 1.6750722,5.85095 1.1917152,0.87854 3.0937235,1.08232 4.9591447,0.53132 z m 11.455184,4.17527 c -0.157536,-0.18982 -0.159585,-0.17858 0.650572,-3.56716 0.293049,-1.22571 0.830932,-3.47536 1.195298,-4.99921 0.364362,-1.52386 0.82586,-3.47536 1.025547,-4.33667 0.199687,-0.8613 0.57554,-2.46045 0.83523,-3.55365 0.25969,-1.0932 0.671093,-2.85497 0.914233,-3.91505 0.24314,-1.06007 0.503194,-2.09003 0.577898,-2.28879 0.231325,-0.61545 0.687998,-1.12043 1.274565,-1.40938 l 0.562523,-0.2771 6.504996,-0.0328 c 3.57775,-0.018 6.626964,-0.004 6.776036,0.0324 0.334603,0.0805 0.338273,0.24568 0.03374,1.52066 -0.301923,1.2641 -0.744513,1.98899 -1.438024,2.35526 -0.52417,0.27683 -0.580804,0.28042 -4.457125,0.28224 -2.159417,9.1e-4 -3.997402,0.047 -4.084409,0.10216 -0.174668,0.11077 -1.625136,6.00335 -1.519722,6.17392 0.03624,0.0586 1.961679,0.1066 4.27876,0.1066 3.645383,0 4.222271,0.0245 4.282648,0.18184 0.03838,0.10001 -0.05204,0.70179 -0.200926,1.3373 -0.317234,1.35407 -0.739668,2.011 -1.560033,2.42602 -0.520527,0.26334 -0.639582,0.27104 -4.186936,0.27104 H 31.09901 l -0.118176,0.27104 c -0.06499,0.14908 -0.341378,1.2468 -0.614185,2.43938 -0.272807,1.19258 -0.645382,2.82202 -0.827945,3.62097 -0.367704,1.6092 -0.570965,2.09277 -1.125029,2.67651 -0.557797,0.58768 -1.266196,0.7496 -3.279528,0.7496 -1.311708,0 -1.742419,-0.0389 -1.848849,-0.16719 z m 17.603262,0.0189 c -0.112904,-0.13605 -0.103939,-0.32918 0.04116,-0.88619 0.102036,-0.39173 0.37894,-1.55247 0.615337,-2.57941 0.236402,-1.02695 0.525436,-2.27374 0.642305,-2.77065 0.407218,-1.73145 1.580558,-6.7035 2.174724,-9.21541 0.329113,-1.39134 0.648983,-2.74655 0.710826,-3.01157 0.391123,-1.67607 1.012147,-4.13451 1.109657,-4.39277 0.159977,-0.42371 0.678528,-0.94671 1.209417,-1.21978 0.415145,-0.21355 0.751971,-0.2299 4.735209,-0.2299 4.436063,0 5.459247,0.0761 6.803909,0.50595 2.924104,0.93478 4.224115,2.62032 4.064321,5.26963 -0.166391,2.75861 -1.71003,4.5686 -4.779978,5.60474 -0.717587,0.24219 -1.104513,0.54551 -0.695887,0.54551 0.430397,0 1.891682,0.87838 2.458717,1.47793 0.823584,0.87082 1.121159,1.69315 1.121159,3.09824 0,3.50553 -1.753333,5.84012 -5.326666,7.09255 -2.026941,0.71043 -2.60397,0.76374 -8.9529,0.82722 -4.947006,0.0495 -5.807888,0.0326 -5.931304,-0.11609 z m 11.18983,-4.30772 c 0.977482,-0.17978 2.134413,-0.81291 2.597773,-1.42162 0.997856,-1.3109 0.900833,-3.45583 -0.191505,-4.23365 -0.694731,-0.49469 -1.23194,-0.59348 -3.429752,-0.63074 -1.158224,-0.0196 -2.137554,-0.004 -2.1763,0.0347 -0.07832,0.0783 -1.030969,3.88208 -1.320554,5.27277 -0.101908,0.48939 -0.156356,0.9366 -0.120994,0.99382 0.0888,0.14368 3.844237,0.13128 4.641332,-0.0153 z m 2.851403,-10.66158 c 1.37976,-0.43726 2.194361,-1.45209 2.194361,-2.73373 0,-1.15988 -0.400689,-1.8001 -1.386967,-2.21611 -0.54999,-0.23198 -4.212861,-0.39005 -4.496458,-0.19404 -0.142589,0.0985 -0.433771,1.16102 -1.155911,4.21764 -0.114502,0.48466 -0.175766,0.96569 -0.136142,1.06895 0.0628,0.16366 0.345954,0.17949 2.20832,0.12338 1.511431,-0.0455 2.322458,-0.12337 2.772797,-0.26609 z m 7.192793,14.97716 c -0.06359,-0.16689 0.101284,-0.9257 1.147333,-5.2804 0.342175,-1.42448 0.82988,-3.48439 1.083792,-4.57759 1.817124,-7.82352 1.821477,-7.83622 2.878161,-8.39339 0.494489,-0.26074 0.669604,-0.27994 2.552726,-0.27994 1.111994,0 2.052255,0.0493 2.089466,0.10948 0.03724,0.0602 -0.0112,0.42612 -0.107731,0.81312 -0.249587,1.00128 -2.372622,10.01504 -2.478127,10.52137 -0.341906,1.64087 -1.34223,5.59127 -1.485643,5.86696 -0.217156,0.41745 -0.611517,0.78234 -1.161839,1.075 -0.351713,0.18704 -0.756154,0.23101 -2.439258,0.26517 -1.600058,0.0325 -2.030314,0.008 -2.07888,-0.11978 z m 8.159911,-0.007 c -0.133692,-0.16109 0.28245,-2.4683 0.520159,-2.884 0.115753,-0.2024 1.441507,-1.67705 5.173942,-5.75501 3.83072,-4.18535 5.240133,-5.77276 5.240133,-5.9019 0,-0.0886 -1.070179,-0.12893 -3.418447,-0.12893 -2.737339,0 -3.445565,-0.0327 -3.554571,-0.16403 -0.103151,-0.12429 -0.06294,-0.41663 0.165941,-1.20645 0.166154,-0.57333 0.302082,-1.06855 0.302082,-1.10048 0,-0.0319 0.198812,-0.27812 0.441789,-0.54708 0.778213,-0.86138 0.558944,-0.83677 7.456133,-0.83677 3.400113,0 6.209511,0.0445 6.243121,0.0989 0.07291,0.11798 -0.554033,2.88849 -0.716636,3.16683 -0.06229,0.10665 -1.631091,1.84007 -3.486218,3.85207 -1.855131,2.012 -4.145431,4.49585 -5.089558,5.51967 -0.944127,1.02382 -1.716595,1.90594 -1.716595,1.96026 0,0.0543 1.728027,0.0988 3.840067,0.0988 2.974072,0 3.868932,0.0348 3.968086,0.15427 0.09206,0.11091 0.0518,0.46327 -0.143281,1.25388 -0.310746,1.25947 -0.677967,1.83076 -1.437892,2.23696 -0.502957,0.26884 -0.531545,0.27007 -7.082352,0.30394 -5.245169,0.0271 -6.603402,0.003 -6.705903,-0.12087 z M 68.989767,135.9088 c -0.636367,-0.169 -1.148599,-0.49877 -1.3902,-0.89501 -0.517326,-0.84845 -0.157649,-2.64597 0.650236,-3.2496 1.625536,-0.9788 4.916083,-1.13842 5.112646,1.22542 0.08888,1.22867 -0.611321,2.36045 -1.721485,2.78253 -0.457469,0.17393 -2.177091,0.26258 -2.651197,0.13666 z"
         id="path6624-1"
         inkscape:connector-curvature="0"
         sodipodi:nodetypes="csccsscscccccscssccccscssscccsccccccscccsccscssccccccccccsccsscscsccccccccccccsccccsccsssscccccccccsssccscsccccssccccccccccc" />
      <g
         transform="matrix(0.12849374,0,0,0.12849374,-52.255059,56.457984)"
         aria-label="®"
         style="font-style:normal;font-variant:normal;font-weight:normal;font-stretch:normal;font-size:39.51562881px;line-height:125%;font-family:Montserrat;-inkscape-font-specification:Montserrat;letter-spacing:0px;word-spacing:0px;fill:#cd452d;fill-opacity:1;stroke:none;stroke-width:1.43693185px;stroke-linecap:butt;stroke-linejoin:miter;stroke-opacity:1"
         id="text5951">
        <path
           inkscape:connector-curvature="0"
           d="m 1133.6751,638.00586 q 4.1887,4.18866 4.1887,10.07649 0,5.88782 -4.1887,10.116 -4.1886,4.22817 -10.1555,4.22817 -5.9669,0 -10.116,-4.18866 -4.1492,-4.18865 -4.1492,-10.07648 0,-5.88783 4.1887,-10.116 4.1887,-4.22818 10.116,-4.22818 5.9274,0 10.116,4.18866 z m -1.225,19.00702 q 3.675,-3.71447 3.675,-8.89102 0,-5.17655 -3.6355,-8.8515 -3.5959,-3.67495 -8.8515,-3.67495 -5.2555,0 -8.891,3.71447 -3.6354,3.67495 -3.6354,8.89101 0,5.17655 3.5959,8.8515 3.5959,3.67496 8.8515,3.67496 5.2556,0 8.891,-3.71447 z m -1.9758,-11.65711 q 0,3.83301 -3.3588,4.8209 l 4.1096,5.57171 h -3.3193 l -3.7144,-5.17655 h -3.3984 v 5.17655 h -2.687 v -15.45061 h 5.8087 q 3.5169,0 5.0185,1.22498 1.5411,1.18547 1.5411,3.83302 z m -6.4805,2.84512 q 2.2129,0 3.0032,-0.67176 0.8298,-0.67177 0.8298,-2.17336 0,-1.54111 -0.8298,-2.13385 -0.8299,-0.59273 -2.9242,-0.59273 h -3.2798 v 5.5717 z"
           style="fill:#cd452d;fill-opacity:1;stroke-width:1.43693185px"
           id="path5972" />
      </g>
    </g>
  </g>
</svg>
