<?xml version="1.0" encoding="UTF-8" standalone="no"?>
<!-- Created with Inkscape (http://www.inkscape.org/) -->
<svg
   xmlns:svg="http://www.w3.org/2000/svg"
   xmlns="http://www.w3.org/2000/svg"
   version="1.0"
   width="72"
   height="72"
   id="svg2813">
  <defs
     id="defs2815" />
  <g
     transform="translate(-406.0625,-335.59375)"
     id="layer1">
    <g
       id="g2842">
      <path
         d="M 471.70125,374.82754 C 473.56,374.82754 475.06625,373.32128 475.06625,371.46128 C 475.06625,369.60253 473.56,368.09503 471.70125,368.09503 C 469.84125,368.09503 468.335,369.60253 468.335,371.46128 C 468.335,373.32128 469.84125,374.82754 471.70125,374.82754 z M 467.4075,371.46128 C 467.4075,369.09129 469.33125,367.17003 471.70125,367.17003 C 474.0725,367.17003 475.99375,369.09129 475.99375,371.46128 C 475.99375,373.83254 474.0725,375.75378 471.70125,375.75378 C 469.33125,375.75378 467.4075,373.83254 467.4075,371.46128"
         id="path2721"
         style="fill:#000000;fill-opacity:1;fill-rule:nonzero;stroke:none" />
      <path
         d="M 453.81875,381.27128 C 455.32,379.45004 456.40875,377.27504 456.93625,374.88878 L 451.73375,374.88878 L 451.72125,390.72003 C 449.67,391.74503 447.43125,392.45128 445.07,392.77254 L 445.07,350.36379 L 445.07,350.32378 C 455.535,351.73379 463.57125,360.70128 463.57125,371.55129 C 463.57125,376.83754 461.6575,381.67753 458.48375,385.41253 L 453.81875,381.27128 z M 451.675,368.34129 L 456.95125,368.34129 C 456.20875,364.90753 454.30625,361.90629 451.6775,359.76378 L 451.675,368.34129"
         id="path2723"
         style="fill:#000000;fill-opacity:1;fill-rule:nonzero;stroke:none" />
      <path
         d="M 471.90875,370.30129 L 470.79375,370.30129 L 470.79375,371.06004 L 471.93875,371.06004 C 472.0875,371.04503 472.25125,370.88128 472.25125,370.65879 C 472.25125,370.43504 471.90875,370.30129 471.90875,370.30129 z M 470.79375,372.10129 L 470.79375,373.87254 L 469.72125,373.87254 L 469.72125,369.36253 L 472.53375,369.37878 C 472.53375,369.37878 473.48625,369.67629 473.53,370.39004 C 473.57375,371.10379 473.47125,371.17879 473.38125,371.32754 C 473.29375,371.47629 473.04,371.81878 472.785,371.93754 L 473.8275,373.87254 L 472.5925,373.87254 L 471.62625,372.10129 L 470.79375,372.10129"
         id="path2725"
         style="fill:#000000;fill-opacity:1;fill-rule:nonzero;stroke:none" />
      <path
         d="M 421.43,376.99129 C 423.5975,385.27254 430.5975,391.59879 439.23625,392.77254 L 439.23625,373.06878 L 429.1975,363.42003 C 430.17,361.89004 431.4075,360.54503 432.84625,359.45004 L 432.83875,363.01128 L 439.32625,363.01128 L 439.32625,350.31628 C 430.8125,351.43754 423.875,357.56128 421.56,365.63628 L 432.71375,375.62754 L 432.71375,383.60753 C 430.0625,381.54503 428.1125,378.62504 427.2775,375.26254 L 421.43,376.99129"
         id="path2727"
         style="fill:#000000;fill-opacity:1;fill-rule:nonzero;stroke:none" />
      <path
         d="M 442.06875,337.67188 C 423.33375,337.67188 408.13124,352.84314 408.13125,371.57812 C 408.13125,390.31187 423.33375,405.51562 442.06875,405.51562 C 452.5125,405.51562 461.845,400.78436 468.06875,393.35938 L 461.5375,387.67188 C 456.91375,393.19313 449.98876,396.70312 442.225,396.70312 C 428.335,396.70312 417.0575,385.45814 417.00625,371.57812 C 417.00625,371.54688 417.00625,371.51563 417.00625,371.48438 C 417.00625,357.56313 428.30376,346.29688 442.225,346.29688 C 450.03375,346.29688 457.00751,349.84688 461.63125,355.42188 L 468.1625,349.89062 C 461.94,342.41688 452.55375,337.67188 442.06875,337.67188 z"
         id="path2729"
         style="fill:#000000;fill-opacity:1;fill-rule:nonzero;stroke:none" />
    </g>
  </g>
</svg>
